<svg width="40" height="40" viewBox="0 0 40 40" fill="none" xmlns="http://www.w3.org/2000/svg">
<path d="M17.8003 38.5472C17.9212 38.5237 18.0459 38.5521 18.1471 38.6262C18.2482 38.7004 18.3175 38.8141 18.3396 38.9425C18.3506 39.0055 18.3496 39.0703 18.3367 39.133C18.3238 39.1956 18.2994 39.2549 18.2648 39.3075C18.2301 39.36 18.186 39.4047 18.135 39.439C18.0839 39.4733 18.027 39.4964 17.9674 39.5071C17.908 39.52 17.8468 39.5201 17.7873 39.5075C17.7279 39.4949 17.6714 39.4699 17.6212 39.4338C17.5709 39.3978 17.528 39.3514 17.4948 39.2975C17.4617 39.2436 17.439 39.1833 17.4281 39.1199C17.4059 38.9916 17.4327 38.8591 17.5025 38.7517C17.5723 38.6443 17.6794 38.5707 17.8003 38.5472ZM14.4655 37.1678C14.5863 37.1447 14.7102 37.1473 14.8301 37.1754C14.9499 37.2035 15.0633 37.2567 15.1637 37.3317C15.264 37.4067 15.3493 37.5022 15.4147 37.6126C15.48 37.7229 15.524 37.8459 15.5442 37.9745C15.5861 38.2333 15.5297 38.4992 15.3873 38.7139C15.2449 38.9286 15.0282 39.0746 14.7846 39.1199C14.553 39.1459 14.3208 39.0783 14.134 38.9307C13.9473 38.7831 13.8197 38.5663 13.7766 38.3233C13.7335 38.0804 13.7781 37.8291 13.9016 37.6195C14.025 37.4099 14.2182 37.2573 14.4427 37.192L14.4655 37.1678ZM9.56587 35.8853C9.49365 36.0759 9.45992 36.2805 9.46686 36.4859C9.4738 36.6912 9.52126 36.8927 9.60616 37.0774C9.69107 37.262 9.81154 37.4257 9.95977 37.5578C10.108 37.6899 10.2807 37.7875 10.4667 37.8442C10.6527 37.901 10.8478 37.9156 11.0394 37.8872C11.2311 37.8589 11.415 37.7881 11.5793 37.6795C11.7435 37.5709 11.8845 37.4268 11.9931 37.2567C12.1016 37.0866 12.1753 36.8942 12.2094 36.6919C12.3101 36.3175 12.2667 35.916 12.0886 35.5756C11.9105 35.2352 11.6124 34.9839 11.2599 34.8769C10.9073 34.77 10.5291 34.8161 10.2086 35.0052C9.88808 35.1943 9.65142 35.5109 9.55068 35.8853H9.56587ZM5.76771 31.5374C5.59519 31.8795 5.52218 32.2683 5.55792 32.6544C5.59365 33.0406 5.73652 33.4069 5.96844 33.7068C6.20035 34.0066 6.51087 34.2267 6.86065 34.339C7.21044 34.4513 7.58375 34.4509 7.93329 34.3377C8.28284 34.2246 8.59289 34.0038 8.82416 33.7033C9.05544 33.4029 9.19753 33.0363 9.23245 32.65C9.26736 32.2638 9.19352 31.8752 9.02028 31.5335C8.84704 31.1918 8.5822 30.9125 8.2593 30.7308C8.04501 30.608 7.80998 30.5316 7.56774 30.5057C7.32549 30.4799 7.08083 30.5051 6.84783 30.5801C6.61483 30.6551 6.3981 30.7783 6.21011 30.9426C6.02213 31.1069 5.86661 31.309 5.75251 31.5374H5.76771ZM5.52462 24.4792C5.08352 24.3907 4.62764 24.4425 4.21417 24.6282C3.8007 24.8138 3.44807 25.125 3.20052 25.5226C2.95297 25.9203 2.82153 26.3867 2.8227 26.8634C2.82387 27.3401 2.95758 27.8058 3.20707 28.2021C3.45656 28.5983 3.81071 28.9076 4.22508 29.0909C4.63945 29.2742 5.09559 29.3236 5.53625 29.2326C5.97691 29.1417 6.38247 28.9146 6.70204 28.5799C7.02161 28.2451 7.24095 27.8175 7.33255 27.3509C7.39435 27.036 7.39643 26.7113 7.33866 26.3955C7.2809 26.0798 7.16445 25.7795 6.99612 25.5121C6.82779 25.2448 6.61096 25.0157 6.3583 24.8384C6.10564 24.661 5.82223 24.5389 5.52462 24.4792ZM12.8399 10.8952C12.8993 10.8837 12.956 10.8596 13.0064 10.8243C13.0569 10.7889 13.1 10.7432 13.1334 10.6897C13.1667 10.6362 13.1896 10.5761 13.2005 10.513C13.2114 10.4499 13.2102 10.3851 13.1969 10.3225C13.1905 10.2541 13.1706 10.1879 13.1386 10.1281C13.1066 10.0683 13.0632 10.0164 13.0111 9.97553C12.9591 9.93469 12.8995 9.90589 12.8363 9.89098C12.7731 9.87607 12.7077 9.87539 12.6442 9.88898C12.5808 9.90257 12.5207 9.93013 12.4679 9.96988C12.4151 10.0096 12.3707 10.0607 12.3376 10.1198C12.3045 10.1789 12.2834 10.2446 12.2757 10.3129C12.2681 10.3812 12.2739 10.4504 12.293 10.5161C12.3251 10.6372 12.3997 10.7406 12.5014 10.8051C12.6031 10.8696 12.7243 10.8903 12.8399 10.8629V10.8952ZM10.2344 13.5007C10.4751 13.4493 10.6868 13.2985 10.8228 13.0814C10.9589 12.8644 11.0082 12.5988 10.9598 12.3431C10.9115 12.0875 10.7694 11.8627 10.565 11.7182C10.3606 11.5737 10.1105 11.5214 9.86973 11.5728C9.62998 11.6241 9.41926 11.7745 9.28393 11.9908C9.14859 12.2072 9.09972 12.4717 9.14808 12.7263C9.19643 12.9809 9.33804 13.2046 9.54176 13.3484C9.74547 13.4921 9.99461 13.544 10.2344 13.4926V13.5007ZM6.37541 14.5816C6.10403 14.8287 5.93334 15.1778 5.89916 15.5557C5.86498 15.9336 5.96996 16.3108 6.19208 16.6083C6.4142 16.9057 6.73619 17.1002 7.09046 17.151C7.44474 17.2018 7.80376 17.1048 8.09219 16.8805C8.38129 16.6399 8.56852 16.2871 8.61268 15.8998C8.65684 15.5126 8.55432 15.1225 8.32767 14.8155C8.10102 14.5085 7.76881 14.3097 7.40411 14.2628C7.03942 14.2159 6.67211 14.3248 6.38301 14.5655L6.37541 14.5816ZM3.93699 19.4215C3.70811 19.7206 3.56731 20.0846 3.53222 20.4682C3.49712 20.8518 3.56928 21.2378 3.73967 21.5781C3.91005 21.9183 4.17111 22.1977 4.4902 22.3813C4.80929 22.5648 5.17226 22.6444 5.53373 22.6101C5.8952 22.5759 6.23913 22.4292 6.52253 22.1885C6.80593 21.9477 7.01621 21.6236 7.1271 21.2567C7.23799 20.8898 7.24457 20.4963 7.146 20.1254C7.04743 19.7545 6.8481 19.4227 6.57292 19.1714C6.38912 19.004 6.17599 18.8768 5.94575 18.7971C5.71552 18.7174 5.47273 18.6868 5.23132 18.707C4.98992 18.7273 4.75465 18.798 4.53905 18.915C4.32344 19.0321 4.13175 19.1933 3.97497 19.3892L3.93699 19.4215Z" fill="#3B9FD9"/>
<path d="M0.968584 17.7537C0.99232 17.8837 0.964977 18.0179 0.892476 18.1274C0.819974 18.2369 0.708148 18.3129 0.581213 18.3388C0.452791 18.3628 0.320277 18.3338 0.212821 18.2581C0.105365 18.1823 0.031771 18.0661 0.00822702 17.935C-0.00344904 17.8712 -0.00268996 17.8056 0.0104605 17.742C0.023611 17.6785 0.048894 17.6182 0.0848675 17.5646C0.120841 17.5111 0.1668 17.4653 0.220116 17.4298C0.273432 17.3944 0.333062 17.3701 0.395598 17.3582C0.458223 17.3451 0.522785 17.345 0.585437 17.358C0.648088 17.3709 0.707545 17.3966 0.760263 17.4335C0.81298 17.4704 0.857879 17.5178 0.892283 17.5728C0.926687 17.6278 0.949893 17.6894 0.960515 17.7537H0.968584ZM2.34859 14.1444C2.37284 14.2751 2.37103 14.4094 2.34327 14.5393C2.31551 14.6692 2.26237 14.7921 2.18703 14.9006C2.11169 15.009 2.0157 15.1009 1.90479 15.1706C1.79389 15.2403 1.67035 15.2865 1.54157 15.3063C1.41372 15.3299 1.28255 15.3272 1.15574 15.2984C1.02893 15.2695 0.909027 15.2152 0.803056 15.1384C0.697085 15.0617 0.607178 14.9641 0.538598 14.8514C0.470018 14.7388 0.424146 14.6133 0.403668 14.4823C0.35551 14.2222 0.410504 13.9532 0.556554 13.7346C0.702603 13.5159 0.927743 13.3654 1.18245 13.3163C1.43715 13.2671 1.70055 13.3232 1.9147 13.4724C2.12886 13.6215 2.27622 13.8514 2.32438 14.1115L2.34859 14.1444ZM1.82403 9.85116C1.74791 10.2221 1.81212 10.6086 2.00375 10.9332C2.19539 11.2577 2.50024 11.4961 2.85701 11.6005C3.21379 11.7049 3.59603 11.6675 3.9269 11.4958C4.25778 11.3242 4.51274 11.031 4.64054 10.6752C4.74756 10.2927 4.7014 9.88254 4.51222 9.53483C4.32303 9.18712 4.00632 8.93038 3.63176 8.82111C3.2572 8.71183 2.85546 8.75897 2.51493 8.95214C2.17441 9.14531 1.92298 9.4687 1.81596 9.85116H1.82403ZM5.36686 5.54143C5.18519 5.88966 5.10876 6.28509 5.14726 6.67768C5.18576 7.07027 5.33744 7.44238 5.58312 7.74692C5.8288 8.05145 6.15744 8.27473 6.52743 8.38849C6.89743 8.50225 7.29216 8.50139 7.66168 8.38601C8.03119 8.27062 8.35888 8.0459 8.60328 7.74029C8.84768 7.43468 8.99779 7.06191 9.03464 6.66915C9.07148 6.27639 8.9934 5.8813 8.81026 5.53387C8.62712 5.18645 8.34717 4.9023 8.00583 4.71739C7.54877 4.46979 7.01418 4.41751 6.5194 4.57201C6.02463 4.7265 5.61012 5.07516 5.36686 5.54143ZM13.2192 1.47067C12.7525 1.36426 12.2654 1.40136 11.8193 1.57729C11.3732 1.75322 10.9882 2.06009 10.7127 2.4592C10.4372 2.85831 10.2836 3.33178 10.2713 3.8199C10.2591 4.30802 10.3886 4.78892 10.6437 5.20194C10.8987 5.61497 11.2679 5.94162 11.7045 6.1407C12.1412 6.33978 12.6258 6.40236 13.0972 6.32056C13.5686 6.23877 14.0058 6.01625 14.3535 5.68107C14.7013 5.3459 14.944 4.91308 15.0511 4.43721C15.1223 4.11785 15.1307 3.78722 15.0757 3.46454C15.0206 3.14186 14.9034 2.83356 14.7307 2.55755C14.558 2.28154 14.3333 2.04332 14.0697 1.85674C13.806 1.67015 13.5087 1.53892 13.195 1.47067H13.2192ZM28.6656 12.3727C28.6928 12.5025 28.7691 12.6161 28.878 12.6887C28.9868 12.7612 29.1194 12.7869 29.2467 12.76C29.3098 12.7483 29.37 12.7236 29.4236 12.6876C29.4772 12.6515 29.5231 12.6047 29.5585 12.5501C29.5939 12.4954 29.6182 12.434 29.6298 12.3695C29.6414 12.3051 29.6401 12.2389 29.626 12.175C29.5901 12.0558 29.5121 11.9545 29.4071 11.8908C29.3022 11.8271 29.1778 11.8054 29.0581 11.8301C28.9385 11.8547 28.832 11.9239 28.7595 12.0242C28.6869 12.1245 28.6535 12.2487 28.6656 12.3727ZM26.067 9.54627C26.0765 9.68807 26.1155 9.82617 26.1816 9.9513C26.2476 10.0764 26.3391 10.1857 26.4498 10.2718C26.5606 10.3579 26.6881 10.4188 26.8238 10.4504C26.9595 10.4821 27.1003 10.4837 27.2367 10.4553C27.373 10.4268 27.5019 10.369 27.6146 10.2855C27.7273 10.202 27.8212 10.095 27.89 9.97142C27.9588 9.84787 28.001 9.71074 28.0137 9.56919C28.0264 9.42765 28.0092 9.28497 27.9635 9.15073C27.9028 8.89912 27.7494 8.68116 27.5351 8.54229C27.3209 8.40342 27.0624 8.35439 26.8136 8.40541C26.5648 8.45643 26.3449 8.60357 26.1998 8.81613C26.0547 9.02869 25.9955 9.29026 26.0347 9.54627H26.067ZM22.9196 5.10469C22.6137 5.35141 22.4157 5.71164 22.3688 6.10682C22.322 6.502 22.43 6.90008 22.6694 7.21423C22.8489 7.44714 23.092 7.62051 23.368 7.71246C23.6439 7.80441 23.9403 7.81081 24.2198 7.73087C24.4993 7.65092 24.7494 7.4882 24.9384 7.26326C25.1274 7.03831 25.2469 6.76123 25.2818 6.467C25.3167 6.17276 25.2654 5.87457 25.1344 5.61007C25.0035 5.34556 24.7987 5.12661 24.546 4.98085C24.2932 4.83509 24.0039 4.76906 23.7144 4.7911C23.425 4.81314 23.1484 4.92226 22.9196 5.10469ZM17.3754 2.93746C17.1229 3.23845 16.9635 3.6092 16.9175 4.00273C16.8714 4.39627 16.9408 4.7949 17.1168 5.14815C17.2928 5.5014 17.5675 5.79337 17.9062 5.98709C18.2448 6.18081 18.6321 6.26756 19.019 6.23637C19.406 6.20518 19.7752 6.05744 20.0798 5.81186C20.3845 5.56629 20.6109 5.23392 20.7304 4.85685C20.85 4.47978 20.8573 4.07497 20.7513 3.69368C20.6454 3.31239 20.431 2.97178 20.1354 2.71497C19.9401 2.54393 19.7137 2.41397 19.4691 2.33256C19.2245 2.25114 18.9666 2.21987 18.7101 2.24055C18.4536 2.26122 18.2037 2.33343 17.9746 2.45303C17.7456 2.57263 17.5419 2.73726 17.3754 2.93746Z" fill="#00BED8"/>
<path d="M21.7556 0.968481C21.6915 0.981287 21.6256 0.981353 21.5615 0.968673C21.4975 0.955993 21.4367 0.930827 21.3829 0.894676C21.329 0.858525 21.2831 0.812129 21.2479 0.758254C21.2128 0.704378 21.1891 0.644125 21.1782 0.581089C21.154 0.453827 21.1819 0.322337 21.256 0.215089C21.3301 0.107841 21.4444 0.0334671 21.5741 0.00807277C21.7054 -0.0154724 21.8408 0.0129644 21.9506 0.087128C22.0604 0.161292 22.1356 0.275107 22.1597 0.403535C22.1715 0.466642 22.1705 0.531423 22.1565 0.594115C22.1425 0.656807 22.116 0.71616 22.0784 0.768724C22.0408 0.821289 21.9929 0.866016 21.9375 0.900309C21.882 0.934601 21.8202 0.957774 21.7556 0.968481ZM25.3763 2.34049C25.2457 2.36359 25.1116 2.36095 24.982 2.33271C24.8524 2.30448 24.7299 2.25122 24.6216 2.17606C24.5133 2.1009 24.4214 2.00534 24.3513 1.895C24.2812 1.78465 24.2343 1.66173 24.2134 1.53343C24.1898 1.40557 24.1925 1.2744 24.2213 1.14758C24.2502 1.02076 24.3046 0.90085 24.3814 0.794873C24.4582 0.688897 24.5559 0.598984 24.6687 0.530401C24.7814 0.461818 24.907 0.415943 25.0382 0.395464C25.3017 0.351585 25.5723 0.411963 25.7904 0.563317C26.0085 0.714672 26.1562 0.944604 26.2011 1.20253C26.2459 1.46046 26.1842 1.72525 26.0296 1.93866C25.8749 2.15207 25.6399 2.29661 25.3763 2.34049ZM27.8094 2.80859C27.6998 3.18423 27.7467 3.58706 27.94 3.9289C28.1332 4.27075 28.4569 4.52376 28.8404 4.63256C29.0299 4.68667 29.2285 4.70345 29.4247 4.68193C29.6209 4.66041 29.8108 4.60102 29.9834 4.50719C30.156 4.41336 30.3079 4.28697 30.4302 4.13532C30.5525 3.98367 30.6429 3.80979 30.6961 3.62373C30.8055 3.24915 30.7583 2.84739 30.565 2.50684C30.3716 2.1663 30.0479 1.91485 29.6651 1.80783C29.2823 1.70081 28.8718 1.74697 28.5237 1.93616C28.1757 2.12535 27.9188 2.44208 27.8094 2.81666V2.80859ZM31.2734 6.17406C31.0861 6.51632 31.0069 6.90528 31.0457 7.29167C31.0845 7.67805 31.2396 8.04447 31.4914 8.34452C31.7432 8.64456 32.0803 8.86471 32.4601 8.9771C32.8399 9.08948 33.2452 9.08903 33.6247 8.97581C34.0043 8.86259 34.3409 8.64169 34.592 8.34109C34.8431 8.04049 34.9974 7.67373 35.0353 7.28726C35.0732 6.90078 34.993 6.512 34.8049 6.17016C34.6168 5.82831 34.3293 5.54878 33.9787 5.36699C33.5104 5.12414 32.9628 5.07271 32.4558 5.22396C31.9488 5.37522 31.5237 5.71683 31.2734 6.17406ZM36.1231 10.2982C35.6457 10.2034 35.1504 10.2486 34.6992 10.4281C34.248 10.6076 33.8609 10.9135 33.5866 11.3074C33.3122 11.7012 33.1628 12.1655 33.157 12.6421C33.1512 13.1187 33.2892 13.5864 33.5539 13.9866C33.8186 14.3867 34.1981 14.7015 34.6448 14.8915C35.0915 15.0815 35.5856 15.1383 36.0651 15.0547C36.5447 14.9711 36.9883 14.7508 37.3405 14.4215C37.6927 14.0923 37.9377 13.6686 38.0448 13.2036C38.1173 12.8891 38.1249 12.5637 38.0671 12.2463C38.0093 11.929 37.8873 11.6261 37.7083 11.3555C37.5293 11.0848 37.2969 10.8519 37.0247 10.6704C36.7525 10.4888 36.446 10.3623 36.1231 10.2982ZM27.1496 28.6751C27.0856 28.6876 27.0247 28.7124 26.9705 28.748C26.9164 28.7836 26.8699 28.8294 26.8339 28.8826C26.7978 28.9359 26.7729 28.9956 26.7606 29.0583C26.7482 29.121 26.7487 29.1855 26.7619 29.2481C26.7897 29.3752 26.8677 29.4865 26.9789 29.5575C27.0902 29.6286 27.2257 29.6537 27.3558 29.6274C27.4198 29.6149 27.4806 29.5901 27.5348 29.5545C27.589 29.5189 27.6354 29.4731 27.6715 29.4198C27.7075 29.3666 27.7324 29.3069 27.7448 29.2442C27.7571 29.1814 27.7566 29.1169 27.7434 29.0544C27.7157 28.9272 27.6377 28.816 27.5264 28.7449C27.4152 28.6739 27.2797 28.6488 27.1496 28.6751ZM29.9786 26.0682C29.8497 26.0937 29.7272 26.1437 29.618 26.2155C29.5089 26.2872 29.4153 26.3793 29.3425 26.4865C29.2698 26.5937 29.2193 26.7138 29.194 26.8401C29.1687 26.9663 29.169 27.0962 29.195 27.2223C29.221 27.3485 29.2721 27.4683 29.3455 27.5751C29.4188 27.6819 29.5129 27.7735 29.6225 27.8447C29.732 27.9159 29.8548 27.9653 29.9838 27.9901C30.1128 28.0148 30.2456 28.0145 30.3744 27.9891C30.6347 27.9377 30.8635 27.7872 31.0105 27.5708C31.1574 27.3544 31.2105 27.0897 31.158 26.835C31.1055 26.5802 30.9517 26.3564 30.7305 26.2126C30.5094 26.0688 30.2389 26.0169 29.9786 26.0682ZM32.3209 22.6705C32.1655 22.7892 32.0355 22.9367 31.9383 23.1046C31.8411 23.2724 31.7787 23.4574 31.7546 23.6489C31.7059 24.0356 31.8161 24.4254 32.0611 24.7325C32.3061 25.0397 32.6658 25.2391 33.061 25.2867C33.4561 25.3344 33.8545 25.2265 34.1684 24.9868C34.4823 24.747 34.686 24.3951 34.7347 24.0084C34.7835 23.6217 34.6732 23.2319 34.4282 22.9247C34.1832 22.6176 33.8236 22.4182 33.4284 22.3705C33.0332 22.3229 32.6348 22.4308 32.3209 22.6705ZM33.7478 17.594C33.4899 17.8884 33.3269 18.2509 33.2795 18.6359C33.2321 19.0208 33.3023 19.4109 33.4813 19.7567C33.6604 20.1026 33.9402 20.3888 34.2854 20.5792C34.6306 20.7695 35.0257 20.8555 35.4208 20.8261C35.8159 20.7968 36.1932 20.6536 36.5051 20.4145C36.8171 20.1754 37.0496 19.8512 37.1733 19.4829C37.297 19.1146 37.3064 18.7186 37.2002 18.3451C37.094 17.9715 36.8771 17.6371 36.5767 17.3842C36.1725 17.0465 35.6481 16.879 35.118 16.9184C34.588 16.9577 34.0954 17.2006 33.7478 17.594Z" fill="#4EC0B0"/>
<path d="M38.5556 21.709C38.5342 21.5904 38.5626 21.4686 38.635 21.3694C38.7073 21.2702 38.8178 21.2014 38.9432 21.1774C39.0058 21.1664 39.07 21.1671 39.1323 21.1795C39.1946 21.1919 39.2536 21.2157 39.3061 21.2495C39.3586 21.2834 39.4035 21.3266 39.4382 21.3768C39.4729 21.427 39.4968 21.4831 39.5085 21.5419C39.5322 21.6617 39.5048 21.7854 39.4323 21.8863C39.3598 21.9873 39.2479 22.0572 39.1208 22.0811C38.9935 22.1035 38.862 22.0778 38.7547 22.0095C38.6473 21.9413 38.5729 21.8361 38.5475 21.7166L38.5556 21.709ZM37.1909 25.0429C37.1678 24.9226 37.1705 24.7992 37.1987 24.6798C37.227 24.5605 37.2802 24.4477 37.3554 24.348C37.4307 24.2482 37.5263 24.1636 37.6367 24.0991C37.7471 24.0346 37.8701 23.9914 37.9984 23.9721C38.1268 23.9503 38.2585 23.9528 38.3859 23.9792C38.5133 24.0057 38.6339 24.0557 38.7406 24.1264C38.8472 24.197 38.9379 24.2869 39.0074 24.3908C39.0768 24.4947 39.1236 24.6105 39.1451 24.7316C39.171 24.963 39.1034 25.1952 38.9557 25.3819C38.8079 25.5686 38.5908 25.6962 38.3476 25.7392C38.1044 25.7823 37.8529 25.7377 37.6431 25.6143C37.4332 25.4909 37.2805 25.2978 37.2152 25.0733L37.1909 25.0429ZM34.8976 28.2325C34.7852 28.584 34.8258 28.9631 35.0106 29.2864C35.1953 29.6097 35.5091 29.8507 35.8828 29.9564C36.2565 30.0622 36.6596 30.024 37.0033 29.8502C37.3471 29.6765 37.6034 29.3814 37.7158 29.0299C37.8229 28.6775 37.7767 28.2994 37.5874 27.979C37.3981 27.6585 37.0812 27.4219 36.7064 27.3212C36.3316 27.2205 35.9297 27.2639 35.5889 27.442C35.2482 27.62 34.9966 27.918 34.8896 28.2705L34.8976 28.2325ZM30.7309 31.2703C30.5492 31.5912 30.4727 31.9556 30.5112 32.3174C30.5497 32.6792 30.7015 33.0222 30.9473 33.3028C31.1932 33.5835 31.522 33.7893 31.8922 33.8941C32.2624 33.9989 32.6574 33.9981 33.0271 33.8918C33.3968 33.7855 33.7247 33.5784 33.9693 33.2967C34.2138 33.0151 34.364 32.6715 34.4009 32.3096C34.4377 31.9476 34.3596 31.5835 34.1764 31.2633C33.9931 30.9431 33.713 30.6812 33.3715 30.5108C32.9141 30.2826 32.3792 30.2345 31.8842 30.3768C31.3891 30.5192 30.9743 30.8405 30.7309 31.2703ZM27.3394 32.1816C26.872 32.0939 26.3875 32.1378 25.9465 32.3078C25.5055 32.4779 25.1276 32.7665 24.8602 33.1376C24.5928 33.5086 24.4477 33.9456 24.4431 34.3939C24.4385 34.8421 24.5746 35.2816 24.8344 35.6575C25.0941 36.0333 25.466 36.3287 25.9034 36.5068C26.3408 36.6848 26.8244 36.7375 27.2935 36.6583C27.7627 36.5791 28.1965 36.3715 28.5408 36.0615C28.8851 35.7515 29.1245 35.3529 29.229 34.9155C29.2999 34.6191 29.3069 34.3123 29.2499 34.0133C29.1928 33.7142 29.0727 33.4289 28.8966 33.1742C28.7205 32.9195 28.4921 32.7004 28.2247 32.5299C27.9572 32.3595 27.6563 32.241 27.3394 32.1816ZM10.8423 26.6757C10.8168 26.5563 10.7424 26.451 10.6351 26.3828C10.5278 26.3146 10.3963 26.2888 10.2689 26.3112C10.1417 26.3367 10.0304 26.4085 9.95932 26.511C9.88821 26.6134 9.86308 26.7382 9.88941 26.858C9.92534 26.9678 10.0034 27.0611 10.1084 27.1198C10.2134 27.1786 10.3378 27.1985 10.4576 27.1758C10.5773 27.1531 10.6838 27.0893 10.7564 26.9969C10.829 26.9045 10.8625 26.79 10.8503 26.6757H10.8423ZM13.4505 29.273C13.4245 29.1548 13.374 29.0426 13.3019 28.9427C13.2298 28.8429 13.1376 28.7574 13.0303 28.6911C12.9231 28.6248 12.803 28.579 12.677 28.5564C12.551 28.5337 12.4214 28.5346 12.2958 28.5591C12.1661 28.5773 12.0417 28.6201 11.9301 28.6848C11.8185 28.7495 11.722 28.8349 11.6465 28.9357C11.571 29.0365 11.5181 29.1507 11.4909 29.2713C11.4637 29.392 11.4628 29.5165 11.4883 29.6375C11.5137 29.7562 11.5638 29.869 11.6356 29.9694C11.7074 30.0699 11.7995 30.1561 11.9067 30.2231C12.014 30.2901 12.1342 30.3366 12.2605 30.3599C12.3868 30.3832 12.5168 30.3829 12.643 30.3589C12.7692 30.335 12.8891 30.2879 12.996 30.2204C13.1028 30.1529 13.1945 30.0662 13.2657 29.9654C13.3369 29.8645 13.3863 29.7515 13.4111 29.6327C13.4359 29.5139 13.4355 29.3916 13.4101 29.273H13.4505ZM14.7828 31.1943C14.6291 31.304 14.4998 31.4411 14.4024 31.5978C14.305 31.7545 14.2413 31.9277 14.2151 32.1075C14.1888 32.2874 14.2005 32.4703 14.2494 32.6459C14.2984 32.8215 14.3836 32.9863 14.5002 33.1309C14.6169 33.2755 14.7627 33.3971 14.9293 33.4887C15.0959 33.5803 15.28 33.6402 15.4712 33.6648C15.6625 33.6895 15.857 33.6785 16.0437 33.6325C16.2304 33.5865 16.4056 33.5064 16.5593 33.3967C16.8385 33.1629 17.0125 32.8379 17.0459 32.4878C17.0794 32.1377 16.9697 31.7888 16.7392 31.512C16.5087 31.2353 16.1748 31.0515 15.8053 30.9981C15.4359 30.9448 15.0587 31.0258 14.7505 31.2247L14.7828 31.1943ZM19.1595 32.979C18.9068 33.2564 18.7474 33.598 18.7013 33.9607C18.6553 34.3234 18.7247 34.6908 18.9008 35.0163C19.0769 35.3419 19.3518 35.611 19.6906 35.7895C20.0294 35.968 20.417 36.048 20.8041 36.0192C21.1913 35.9905 21.5607 35.8543 21.8655 35.628C22.1704 35.4017 22.3969 35.0954 22.5165 34.7479C22.6362 34.4004 22.6434 34.0273 22.5374 33.6759C22.4314 33.3245 22.217 33.0106 21.9211 32.7739C21.5256 32.4575 21.0129 32.3014 20.4953 32.3399C19.9776 32.3783 19.4973 32.6081 19.1595 32.979Z" fill="#64C18C"/>
</svg>
