<svg width="16" height="16" viewBox="0 0 16 16" fill="none" xmlns="http://www.w3.org/2000/svg">
<mask id="mask0_3563_2699" style="mask-type:alpha" maskUnits="userSpaceOnUse" x="0" y="0" width="16" height="16">
<rect width="16" height="16" fill="#D9D9D9"/>
</mask>
<g mask="url(#mask0_3563_2699)">
<path d="M12.8182 14.2545C12.8182 15.2184 12.0367 16 11.0728 16H4.74548C3.78159 16 3 15.2185 3 14.2545V1.74548C3 0.781593 3.78151 0 4.74548 0H11.0728C12.0367 0 12.8182 0.781509 12.8182 1.74548V14.2545Z" fill="#3B9FD9"/>
<path d="M7.90922 15.4138C8.45365 15.4138 8.89498 14.9724 8.89498 14.428C8.89498 13.8836 8.45365 13.4423 7.90922 13.4423C7.3648 13.4423 6.92346 13.8836 6.92346 14.428C6.92346 14.9724 7.3648 15.4138 7.90922 15.4138Z" fill="white"/>
<path d="M10.659 1.15027H5.15878C4.85047 1.15027 4.59961 1.38943 4.59961 1.68286V12.0799C4.59961 12.3736 4.8503 12.6125 5.15878 12.6125H10.659C10.9673 12.6125 11.2181 12.3733 11.2181 12.0799V1.68286C11.218 1.38918 10.9673 1.15027 10.659 1.15027Z" fill="white"/>
</g>
</svg>
