<svg width="16" height="16" viewBox="0 0 16 16" fill="none" xmlns="http://www.w3.org/2000/svg">
<mask id="mask0_3563_2700" style="mask-type:alpha" maskUnits="userSpaceOnUse" x="0" y="0" width="16" height="16">
<rect width="16" height="16" fill="#D9D9D9"/>
</mask>
<g mask="url(#mask0_3563_2700)">
<path d="M3.67006 3.65347C3.85718 2.9551 4.29719 2.32139 4.97299 1.93204L5.68765 1.58311C6.23389 1.26774 6.93322 1.45513 7.24859 2.00137L7.87753 3.51782C8.1929 4.06406 8.00552 4.76339 7.45928 5.07876L6.3606 5.89108C6.58863 8.09623 7.60824 9.95134 9.54258 11.4024L10.7954 10.8571C11.3416 10.5417 12.041 10.7291 12.3563 11.2754L13.3552 12.5783C13.6705 13.1245 13.4831 13.8238 12.9369 14.1392L12.2774 14.5837C11.6023 14.9742 10.8335 15.0384 10.1351 14.8513C6.27143 13.816 2.7088 7.24092 3.67006 3.65347Z" fill="#3B9FD9"/>
</g>
</svg>
