<svg width="16" height="16" viewBox="0 0 16 16" fill="none" xmlns="http://www.w3.org/2000/svg">
<mask id="mask0_3563_2698" style="mask-type:alpha" maskUnits="userSpaceOnUse" x="0" y="0" width="16" height="16">
<rect width="16" height="16" fill="#D9D9D9"/>
</mask>
<g mask="url(#mask0_3563_2698)">
<path d="M10.5137 5.02571C10.0213 2.73888 8.97123 1.29211 8.00003 1.29211C7.02883 1.29211 5.97876 2.73888 5.48639 5.02571H10.5137Z" fill="#3B9FD9"/>
<path d="M5.19983 7.82603C5.19971 8.45037 5.24134 9.07403 5.32444 9.69282H10.6756C10.7587 9.07403 10.8003 8.45037 10.8002 7.82603C10.8003 7.20168 10.7587 6.57802 10.6756 5.95923H5.32444C5.24134 6.57802 5.19971 7.20168 5.19983 7.82603Z" fill="#3B9FD9"/>
<path d="M5.48639 10.6261C5.97876 12.9129 7.02883 14.3597 8.00003 14.3597C8.97123 14.3597 10.0213 12.9129 10.5137 10.6261H5.48639Z" fill="#3B9FD9"/>
<path d="M11.4694 5.02575H14.4096C13.9678 4.02037 13.2966 3.13251 12.4497 2.43339C11.6029 1.73427 10.6039 1.24335 9.53308 1C10.4184 1.77892 11.1129 3.21916 11.4694 5.02575Z" fill="#3B9FD9"/>
<path d="M14.7452 5.95923H11.6183C11.6953 6.57851 11.7338 7.20197 11.7336 7.82603C11.7337 8.45009 11.695 9.07355 11.6179 9.69282H14.7447C15.0851 8.47156 15.0856 7.18049 14.7452 5.95923Z" fill="#3B9FD9"/>
<path d="M9.53308 14.6518C10.6041 14.4086 11.6032 13.9178 12.4503 13.2186C13.2973 12.5195 13.9687 11.6316 14.4106 10.6261H11.4704C11.1129 12.4327 10.4184 13.8729 9.53308 14.6518Z" fill="#3B9FD9"/>
<path d="M4.53054 10.6261H1.59033C2.0322 11.6316 2.70358 12.5195 3.55062 13.2186C4.39767 13.9178 5.39678 14.4086 6.46781 14.6518C5.58154 13.8729 4.8871 12.4327 4.53054 10.6261Z" fill="#3B9FD9"/>
<path d="M6.46689 1C5.39586 1.24322 4.39675 1.73408 3.54971 2.43321C2.70267 3.13233 2.03128 4.02026 1.58942 5.02575H4.52962C4.88711 3.21916 5.58156 1.77892 6.46689 1Z" fill="#3B9FD9"/>
<path d="M4.26641 7.82603C4.26635 7.20197 4.305 6.5785 4.38215 5.95923H1.25526C0.914913 7.18049 0.914913 8.47156 1.25526 9.69282H4.38215C4.305 9.07355 4.26635 8.45009 4.26641 7.82603Z" fill="#3B9FD9"/>
</g>
</svg>
